<svg xmlns="http://www.w3.org/2000/svg" data-name="Layer 2" viewBox="0 0 32 32" fill="black" stroke="black" stroke-width="1.5" x="0px" y="0px"><path d="m24.09,26.99s0,0,0,0c0,0,0,0,.01.01,0,0-.01,0-.02-.01Zm4.99-9.07c-.03-.06-.07-.09-.13-.12-.22-.11-.42-.27-.61-.42-1.55-1.22-3.18-2.3-4.84-3.36.02-.03.04-.07.06-.1.21-.27.42-.53.64-.79.72-.88,1.52-1.72,2.13-2.68.07-.12.14-.24.21-.36.2-.24.37-.47.34-.59,0-.03-.03-.04-.05-.06,0-.11-.05-.2-.21-.23-.07,0-.14.01-.21.02-.08-.02-.17,0-.24.03,0,0-.02,0-.03.01,0,0,0,0,0,0-.72.34-1.52.48-2.27.73-.86.28-1.69.61-2.54.9-.51.17-1.02.33-1.49.58-.04.03-.09.05-.13.08-.19-.48-.38-.96-.59-1.43-.29-.71-.51-1.45-.79-2.16-.32-.81-.72-1.63-.99-2.47-.21-.57-.61-2.38-1.28-2.46-.12,0-.2.09-.26.19-.05.08-.08.17-.13.26-.04.04-.06.09-.07.15-.04.08-.08.16-.11.24-.36.84-.77,1.69-1.07,2.56-.3.75-.55,1.51-.82,2.26-.34.77-.65,1.56-.88,2.37-.81-.57-1.62-1.14-2.41-1.74-.77-.56-1.55-1.08-2.29-1.69-.34-.23-.64-.51-.96-.75-.55-.4-1.14-.72-1.74-1.03-.08-.06-.16-.07-.22-.05-.03-.02-.05-.04-.08-.05-.11-.06-.24-.13-.36-.08-.17.07-.17.23-.1.37,0,.02-.02.04-.02.07,0,.14.14.23.2.35.64,1.07.95,2.3,1.62,3.35.43.84.84,1.66,1.26,2.51.32.67.6,1.35.98,1.99.01.02.02.05.03.07-.05.03-.1.07-.15.1-.96.6-2.01,1.12-2.99,1.7-.59.37-1.27.62-1.81,1.08-.09.08-.28.23-.42.39-.01,0-.03.02-.04.02-.13.08-.28.17-.31.33-.01.1.02.15.08.19-.03.06-.03.13.02.2.07.09.18.1.28.13.92.35,1.84.69,2.78.97.6.21,1.21.38,1.81.58.58.18,1.14.4,1.72.58-.24.58-.52,1.14-.79,1.71-.31.74-.67,1.44-1.05,2.14-.15.28-.32.63-.47.92-.06.12-.17.32-.22.5-.06.11-.12.23-.09.36.03.09.06.2.14.27.13.13.61,0,.63-.2,0,0,0,0,0,0,.48-.35,1.04-.6,1.57-.85,1.2-.62,2.44-1.2,3.62-1.86.13-.07.25-.14.37-.22.1.26.21.52.31.77.29.72.56,1.52.77,2.28.15.6.23,1.22.48,1.8.09.2.18.44.36.58.06.03.1.03.15.02,0,0,0,0,0,0,0,0,0,0,0,0,.05,0,.1-.02.14-.06.09-.1.12-.25.19-.37.23-.44.5-.86.77-1.28.48-.67.74-1.46,1.17-2.15.23-.35.38-.73.55-1.11.05-.12.19-.31.25-.48.22.17.45.32.7.49.98.73,1.94,1.49,2.94,2.2.82.53,1.62,1.06,2.41,1.65.17.12.31.22.48.35.13.09.26.2.42.23.11.02.23-.06.25-.17,0-.03,0-.07,0-.1.05-.04.08-.08.09-.14,0-.09-.03-.13-.07-.21-.47-.92-.79-1.91-1.24-2.84-.21-.44-.44-.87-.67-1.3-.27-.53-.44-1.11-.69-1.65-.41-.8-.67-1.66-1.13-2.44-.09-.23-.19-.45-.34-.65.15,0,.29,0,.44-.01.74.01,1.47-.04,2.2-.12.69-.06,1.39-.08,2.08-.17.69-.08,1.38-.13,2.07-.19.14-.02.29-.01.42-.06.06-.02.1-.07.12-.12.12-.03.22-.17.15-.3Zm-16.48-6.4s-.02.06-.02.09c-.16-.15-.33-.29-.49-.43.17.12.34.24.52.35Zm12.2,6.76c-.69.03-1.36.15-2.05.16-.52,0-1.04.02-1.56.03-.15,0-.39-.03-.44.16-.08.05-.14.13-.1.24.21.5.53.95.79,1.43.45.82.88,1.65,1.35,2.45.23.39.44.78.62,1.19.54,1.23,1.04,2.46,1.58,3.69-.3-.21-.59-.42-.9-.64-.67-.5-1.41-.92-2.09-1.41-1.18-.88-2.34-1.76-3.53-2.62-.08-.1-.17-.1-.26-.07-.08-.05-.18-.07-.27.02-.25.3-.36.65-.52,1-.27.56-.55,1.13-.78,1.71-.37.89-.97,1.73-1.36,2.61-.31-.7-.37-1.48-.6-2.21-.31-1.13-.81-2.19-1.18-3.29-.03-.09-.12-.13-.21-.13,0,0-.01,0-.02,0-.01,0-.03,0-.04,0-.01,0-.01.02-.02.02-.03,0-.06,0-.09.02-.9.63-1.93,1.08-2.87,1.68-.55.31-1.06.67-1.62.99-.33.18-.68.3-1.03.44.42-.84.87-1.65,1.29-2.51.32-.77.71-1.51,1.05-2.27.08-.21.19-.41.24-.63,0-.05-.01-.08-.03-.12,0,0,0,0,0,0-.01-.03-.03-.05-.05-.07-.01-.01-.02-.03-.03-.04-.82-.32-1.69-.49-2.52-.76-.49-.17-.95-.41-1.45-.58-.54-.19-1.13-.27-1.69-.43-.28-.1-.56-.23-.85-.34.43-.27.91-.47,1.36-.72.66-.34,1.34-.63,1.94-1.06,0,0,0,0-.01,0,0,0,0,0,0,0,.51-.31,1.03-.59,1.55-.88.31-.19.61-.37.94-.52.11-.05.16-.17.12-.28,0-.02-.03-.02-.04-.04,0-.04.01-.07,0-.11-.2-.49-.48-.95-.68-1.44-.43-1-.85-2-1.42-2.93-.66-1.16-1.27-2.36-1.98-3.49,1.64,1.42,3.49,2.59,5.21,3.9.36.28.73.6,1.08.9.29.25.58.52.87.77.07.28.36.28.43.1.22,0,.3-.33.34-.52.22-.49.37-1.01.58-1.5.49-1.28,1.06-2.54,1.49-3.85.08-.3.67-1.86.67-2.56.01-.02.02-.05.03-.07.66,1.13.92,2.43,1.39,3.65.35.98.64,1.99,1.05,2.95.29.67.5,1.33.74,2.03.08.19.29.15.38.02.07.06.17.07.26,0,.18-.11.37-.19.55-.29.62-.31,1.3-.47,1.96-.72.65-.23,1.27-.54,1.9-.82.62-.27,1.23-.47,1.89-.66-.92,1.03-1.96,1.94-2.78,3.05-.28.38-.55.77-.82,1.15-.05.08-.04.17.01.24-.04.1-.02.24.12.28.66.6,1.48,1,2.23,1.47.46.28.93.54,1.39.82.6.37,1.16.8,1.8,1.09-1.11.06-2.21.24-3.33.3Zm-1.81-3.97s-.02-.02-.03-.03c0,0,0,0,0,0,0,.01.02.03.03.04Z"/></svg>