<svg xmlns="http://www.w3.org/2000/svg" version="1.1" viewBox="-5.0 -10.0 110.0 115.0">
 <g>
  <path d="m50.711 2.207c-0.45703-0.16406-0.96484-0.16406-1.4219 0l-22.918 8.3359c-0.82422 0.29688-1.3711 1.082-1.3711 1.957v2.082h50v-2.082c0-0.875-0.54688-1.6602-1.3711-1.957z"/>
  <path d="m20.832 89.582c0-1.1484-0.92969-2.082-2.082-2.082s-2.082 0.93359-2.082 2.082c0 0.23828-0.14453 0.70703-0.90234 1.2148-0.74609 0.49609-1.8945 0.87109-3.2656 0.87109-1.1523 0-2.082 0.92969-2.082 2.082s0.92969 2.082 2.082 2.082c2.0781 0 4.0586-0.55859 5.5742-1.5703 0.23438-0.15234 0.46094-0.32422 0.67578-0.50781 0.21484 0.18359 0.44141 0.35547 0.67578 0.50781 1.5156 1.0117 3.4961 1.5703 5.5742 1.5703s4.0586-0.55859 5.5742-1.5703c0.23438-0.15234 0.46094-0.32422 0.67578-0.50781 0.21484 0.18359 0.44141 0.35547 0.67578 0.50781 1.5156 1.0117 3.4961 1.5703 5.5742 1.5703s4.0586-0.55859 5.5742-1.5703c0.23438-0.15234 0.46094-0.32422 0.67578-0.50781 0.21484 0.18359 0.44141 0.35547 0.67578 0.50781 1.5156 1.0117 3.4961 1.5703 5.5742 1.5703s4.0586-0.55859 5.5742-1.5703c0.23438-0.15234 0.46094-0.32422 0.67578-0.50781 0.21484 0.18359 0.44141 0.35547 0.67578 0.50781 1.5156 1.0117 3.4961 1.5703 5.5742 1.5703s4.0586-0.55859 5.5742-1.5703c0.23438-0.15234 0.46094-0.32422 0.67578-0.50781 0.21484 0.18359 0.44141 0.35547 0.67578 0.50781 1.5156 1.0117 3.4961 1.5703 5.5742 1.5703s4.0586-0.55859 5.5742-1.5703c0.23438-0.15234 0.46094-0.32422 0.67578-0.50781 0.21484 0.18359 0.44141 0.35547 0.67578 0.50781 1.5156 1.0117 3.4961 1.5703 5.5742 1.5703 1.1523 0 2.082-0.92969 2.082-2.082s-0.92969-2.082-2.082-2.082c-1.3711 0-2.5195-0.375-3.2656-0.87109-0.75781-0.50781-0.90234-0.97656-0.90234-1.2148 0-1.1484-0.92969-2.082-2.082-2.082s-2.082 0.93359-2.082 2.082c0 0.23828-0.14453 0.70703-0.90234 1.2148-0.74609 0.49609-1.8945 0.87109-3.2656 0.87109s-2.5195-0.375-3.2656-0.87109c-0.75781-0.50781-0.90234-0.97656-0.90234-1.2148 0-1.1484-0.92969-2.082-2.082-2.082s-2.082 0.93359-2.082 2.082c0 0.23828-0.14453 0.70703-0.90234 1.2148-0.74609 0.49609-1.8945 0.87109-3.2656 0.87109s-2.5195-0.375-3.2656-0.87109c-0.75781-0.50781-0.90234-0.97656-0.90234-1.2148 0-1.1484-0.92969-2.082-2.082-2.082s-2.082 0.93359-2.082 2.082c0 0.23828-0.14453 0.70703-0.90234 1.2148-0.74609 0.49609-1.8945 0.87109-3.2656 0.87109s-2.5195-0.375-3.2656-0.87109c-0.75781-0.50781-0.90234-0.97656-0.90234-1.2148 0-1.1484-0.92969-2.082-2.082-2.082s-2.082 0.93359-2.082 2.082c0 0.23828-0.14453 0.70703-0.90234 1.2148-0.74609 0.49609-1.8945 0.87109-3.2656 0.87109s-2.5195-0.375-3.2656-0.87109c-0.75781-0.50781-0.90234-0.97656-0.90234-1.2148 0-1.1484-0.92969-2.082-2.082-2.082s-2.082 0.93359-2.082 2.082c0 0.23828-0.14453 0.70703-0.90234 1.2148-0.74609 0.49609-1.8945 0.87109-3.2656 0.87109s-2.5195-0.375-3.2656-0.87109c-0.75781-0.50781-0.90234-0.97656-0.90234-1.2148z"/>
  <path d="m16.668 20.832c0-1.1484 0.92969-2.082 2.082-2.082h62.5c1.1523 0 2.082 0.93359 2.082 2.082v15.523l-31.613-9.0312c-1.125-0.32031-2.3125-0.32031-3.4375 0l-31.613 9.0312z"/>
  <path d="m47.918 31.762v32.82c0 1.1523 0.92969 2.0859 2.082 2.0859s2.082-0.93359 2.082-2.0859v-32.82l42.242 12.07c0.58594 0.16797 1.0742 0.58594 1.3242 1.1445 0.25391 0.55859 0.24609 1.1992-0.019532 1.7539l-3.9961 8.375-30.617-9.1836c-1.1016-0.33203-2.2656 0.29297-2.5938 1.3945-0.33203 1.1055 0.29297 2.2656 1.3945 2.5977l30 8.9961-12.082 25.32c-0.054687 0.11328-0.12109 0.22266-0.19141 0.32031-0.26172 0.19141-0.50391 0.40234-0.73047 0.63281-0.29297 0.14844-0.62109 0.23438-0.96094 0.23438h-2.4414c-1.1445-1.2812-2.8086-2.0859-4.6602-2.0859s-3.5156 0.80469-4.6602 2.0859h-3.1797c-1.1445-1.2812-2.8086-2.0859-4.6602-2.0859s-3.5156 0.80469-4.6602 2.0859h-3.1797c-1.1445-1.2812-2.8086-2.0859-4.6602-2.0859s-3.5156 0.80469-4.6602 2.0859h-3.1797c-1.1445-1.2812-2.8086-2.0859-4.6602-2.0859s-3.5156 0.80469-4.6602 2.0859h-2.4414c-0.33984 0-0.66797-0.085938-0.96094-0.23438-0.22656-0.23047-0.46875-0.44141-0.73047-0.63281-0.070312-0.097656-0.13672-0.20703-0.19141-0.32031l-12.082-25.32 30-8.9961c1.1016-0.33203 1.7266-1.4922 1.3945-2.5977-0.32812-1.1016-1.4922-1.7266-2.5938-1.3945l-30.617 9.1836-3.9961-8.375c-0.26562-0.55469-0.27344-1.1953-0.019532-1.7539 0.25-0.55859 0.73828-0.97656 1.3242-1.1445z"/>
 </g>
</svg>